<?xml version="1.0" standalone="no"?><!DOCTYPE svg PUBLIC "-//W3C//DTD SVG 1.1//EN" "http://www.w3.org/Graphics/SVG/1.1/DTD/svg11.dtd"><svg t="1581912433688" class="icon" viewBox="0 0 1024 1024" version="1.1" xmlns="http://www.w3.org/2000/svg" p-id="3195" xmlns:xlink="http://www.w3.org/1999/xlink" width="200" height="200"><defs><style type="text/css"></style></defs><path d="M895.035278 512c0-211.212446-171.83767-383.034766-383.034766-383.034766-211.20119 0-383.03579 171.82232-383.03579 383.034766 0 114.678856 50.669006 217.727837 130.777509 287.98497 0.255827 0.268106 0.48914 0.547469 0.759293 0.808412 1.013073 0.971118 2.094708 1.822508 3.203972 2.617617 66.915016 57.096393 153.642263 91.623767 248.293993 91.623767 95.024214 0 182.065616-34.795481 249.091148-92.302219 1.372254-0.924045 2.692319-1.958608 3.918239-3.151783 0.512676-0.494257 0.972141-1.020236 1.442862-1.544169C845.284177 727.830627 895.035278 625.62485 895.035278 512zM185.417455 512c0-180.079378 146.503679-326.583057 326.58408-326.583057 180.076308 0 326.583057 146.503679 326.583057 326.583057 0 88.717577-35.576263 169.270195-93.192495 228.188072-41.24231-37.242206-87.697341-64.224744-136.77613-79.422887 18.767436-19.820418 33.540907-47.741327 44.183292-83.684958l24.199145-91.224678c10.561543-27.825742 3.448542-62.446237-20.174482-97.78407-28.972868-43.345204-82.884732-87.214341-129.939421-87.214341l-27.949562 0c-45.647643 0-95.897094 40.188304-123.268488 77.538981-27.372418 37.34863-36.96182 75.387991-27.316136 105.873306l25.13854 94.310969c8.848529 27.123754 21.446451 58.781778 43.497677 82.486666-49.314149 15.433504-95.895047 42.720987-137.192615 80.335676C221.480812 682.381505 185.417455 601.328491 185.417455 512zM323.208704 778.345114c42.252313-36.947494 90.303702-61.311391 140.498918-70.913073 14.363126-2.758834 23.676236-18.248619 22.324448-32.788777l0-16.692171c0-10.18292-5.483898-19.568684-14.355963-24.573675-17.756409-10.033517-31.482015-32.330336-44.078914-70.799486l-25.028023-94.050026c-4.325515-13.725606 2.617617-34.93772 18.633383-56.753585 24.644283-33.642215 59.538001-54.467519 77.732385-54.467519l27.949562 0c19.569708 0 59.239196 26.572192 82.998319 62.11571 12.789281 19.144012 18.21792 37.060057 14.192234 46.790676-0.463558 1.159406-0.88209 2.357697-1.211595 3.557012l-24.420179 92.050486c-10.640338 35.972283-25.443485 59.813271-44.023656 70.839395-8.572236 5.088902-13.807471 14.307867-13.807471 24.273846l0 17.555841c0-0.096191-0.028653-0.152473-0.028653-0.152473-0.027629 0-0.083911 0.221034-0.192382 0.747014-2.51017 15.119349 7.497765 29.491685 22.549575 32.373315 49.653887 9.476839 97.251951 33.494858 139.228995 69.885674-53.595662 38.520315-119.27657 61.238736-190.168154 61.238736C441.716772 838.583057 376.54854 816.265772 323.208704 778.345114z" p-id="3196"></path></svg>