<?xml version="1.0" standalone="no"?><!DOCTYPE svg PUBLIC "-//W3C//DTD SVG 1.1//EN" "http://www.w3.org/Graphics/SVG/1.1/DTD/svg11.dtd"><svg t="1581826618510" class="icon" viewBox="0 0 1489 1024" version="1.1" xmlns="http://www.w3.org/2000/svg" p-id="2018" xmlns:xlink="http://www.w3.org/1999/xlink" width="290.8203125" height="200"><defs><style type="text/css"></style></defs><path d="M712.152 208.803h65.164V93.09h-65.164v115.712zM330.014 427.939l46.173-54.551-72.052-71.122-45.987 49.897 71.866 75.776zM93.097 902.982h97.746v-77.266H93.097v77.266z m1205.528-77.173v77.173h97.745v-77.266h-97.745z m-185.251-452.142l46.08 54.551 69.073-81.734-46.08-54.644-69.166 81.827zM798.168 850.85c-15.546 0-28.3 14.894-28.3 33.233 0 18.34 12.754 33.327 28.3 33.327 15.546 0 28.3-14.988 28.3-33.327 0-18.245-12.754-33.233-28.3-33.233z m0-66.56c46.825 0 84.992 44.684 84.992 99.793 0 55.11-38.167 99.794-84.992 99.794-46.918 0-84.992-44.684-84.992-99.794 0-55.016 38.167-99.793 84.992-99.793zM697.164 654.336l76.707 256.559 46.36 22.062 11.17-56.972L697.164 654.43zM510.796 232.169l381.487 629.48L860.632 1024l-131.724-62.93L510.796 232.17z" p-id="2019"></path><path d="M1435.282 1024h-101.655a651.73 651.73 0 1 0-1177.786 0H54.185a744.727 744.727 0 1 1 1381.19 0z" p-id="2020"></path></svg>