<?xml version="1.0" standalone="no"?><!DOCTYPE svg PUBLIC "-//W3C//DTD SVG 1.1//EN" "http://www.w3.org/Graphics/SVG/1.1/DTD/svg11.dtd"><svg t="1582607714095" class="icon" viewBox="0 0 1024 1024" version="1.1" xmlns="http://www.w3.org/2000/svg" p-id="5273" xmlns:xlink="http://www.w3.org/1999/xlink" width="200" height="200"><defs><style type="text/css"></style></defs><path d="M880.640599 1024H143.3604C64.309825 1024 0 959.690175 0 880.640599V143.3604C0 64.309825 64.309825 0 143.3604 0h737.280199c79.049575 0 143.3604 64.309825 143.3604 143.3604v737.280199c-0.000999 79.049575-64.310824 143.359401-143.3604 143.359401zM143.3604 40.9604C86.899985 40.9604 40.9604 86.899985 40.9604 143.3604v737.280199c0 56.460414 45.939586 102.4 102.4 102.4h737.280199c56.460414 0 102.4-45.939586 102.4-102.4V143.3604C983.040599 86.899985 937.100015 40.9604 880.640599 40.9604H143.3604z" fill="#2c2c2c" p-id="5274"></path><path d="M307.2 481.2797h409.6v61.439601H307.2z" fill="#2c2c2c" p-id="5275"></path></svg>