<?xml version="1.0" standalone="no"?><!DOCTYPE svg PUBLIC "-//W3C//DTD SVG 1.1//EN" "http://www.w3.org/Graphics/SVG/1.1/DTD/svg11.dtd"><svg t="1582607667879" class="icon" viewBox="0 0 1024 1024" version="1.1" xmlns="http://www.w3.org/2000/svg" p-id="3889" xmlns:xlink="http://www.w3.org/1999/xlink" width="200" height="200"><defs><style type="text/css"></style></defs><path d="M887.6 39.9H142.2c-55 0-99.8 44.8-99.8 99.8v745.5c0 55 44.8 99.8 99.8 99.8h745.5c55 0 99.8-44.8 99.8-99.8V139.7c-0.1-55.1-44.9-99.8-99.9-99.8z m49.8 845.2c0 27.4-22.3 49.8-49.8 49.8H142.2c-27.4 0-49.8-22.3-49.8-49.8V139.7c0-27.4 22.3-49.8 49.8-49.8h745.5c27.4 0 49.8 22.3 49.8 49.8v745.4z" fill="#2c2c2c" p-id="3890"></path><path d="M542.3 708.2c0 15.5-12.5 28-28 28s-28-12.6-28-28V540.6H317.5c-15.6 0-28.2-12.6-28.2-28.2s12.6-28.2 28.2-28.2h168.8V316.5c0-15.4 12.5-28 28-28s28 12.6 28 28v167.6h170c15.6 0 28.2 12.6 28.2 28.2s-12.6 28.2-28.2 28.2h-170v167.7z" fill="#2c2c2c" p-id="3891"></path></svg>